<?xml version="1.0" encoding="UTF-8"?>
<svg version="1.1" xmlns="http://www.w3.org/2000/svg" width="100" height="100">
<path d="M0 0 C1.485 0.495 1.485 0.495 3 1 C3 2.98 3 4.96 3 7 C1.35 7.66 -0.3 8.32 -2 9 C-0.65226477 15.89259235 -0.65226477 15.89259235 4 21 C7.37881434 19.60186993 9.15017878 18.17112209 11 15 C11.72045367 11.84881675 11.72045367 11.84881675 12 9 C9.525 8.01 9.525 8.01 7 7 C7 5.02 7 3.04 7 1 C11 1 11 1 12.44921875 2.39453125 C12.96097656 2.92433594 13.47273438 3.45414062 14 4 C16.41504982 4.94357368 18.850668 5.69903916 21.33203125 6.44921875 C25.34505409 8.781825 27.42150469 12.20931029 30 16 C30.49701416 16.70890381 30.99402832 17.41780762 31.50610352 18.14819336 C32.99193437 20.28869784 34.43689231 22.45220687 35.875 24.625 C36.37257813 25.34945313 36.87015625 26.07390625 37.3828125 26.8203125 C40.10303812 30.94548981 42.01453307 33.9064881 41 39 C39.25 42.04296875 39.25 42.04296875 37 45.1875 C33.48882127 50.38902406 32.20369616 54.26519835 32.9140625 60.5625 C33 63 33 63 32.01538086 65.28222656 C30.86443246 68.36286074 30.7854365 70.64286224 30.83984375 73.921875 C30.85080078 75.02917969 30.86175781 76.13648437 30.87304688 77.27734375 C30.90495117 78.99630859 30.90495117 78.99630859 30.9375 80.75 C30.9717579 83.03639782 31.00193805 85.32286169 31.02734375 87.609375 C31.05429321 89.1248291 31.05429321 89.1248291 31.08178711 90.67089844 C31 93 31 93 30 94 C24.88636663 94.93131802 19.86989025 95.14719531 14.6875 95.1328125 C13.91494873 95.13376923 13.14239746 95.13472595 12.34643555 95.13571167 C10.72281818 95.13638825 9.09919802 95.13457065 7.47558594 95.13037109 C5.00709896 95.1250154 2.5387939 95.1303339 0.0703125 95.13671875 C-1.5156254 95.13605788 -3.10156318 95.13477652 -4.6875 95.1328125 C-5.41686768 95.13483673 -6.14623535 95.13686096 -6.89770508 95.13894653 C-18.91535425 95.08464575 -18.91535425 95.08464575 -21 93 C-21.06305976 91.20420872 -21.05929311 89.40598906 -21.02734375 87.609375 C-21.01509766 86.50722656 -21.00285156 85.40507813 -20.99023438 84.26953125 C-20.95531126 81.93873638 -20.91630425 79.60799884 -20.87304688 77.27734375 C-20.86208984 76.17003906 -20.85113281 75.06273438 -20.83984375 73.921875 C-20.82300537 72.90706055 -20.80616699 71.89224609 -20.78881836 70.84667969 C-21.01128947 67.84782057 -21.81711253 65.74178827 -23 63 C-22.9140625 60.5625 -22.9140625 60.5625 -22.625 58 C-22.42732479 51.35990993 -25.54285781 47.2239574 -29.25 42.04296875 C-31.30047209 38.47752733 -31.73436576 37.0390117 -31 33 C-29.54225895 30.03020842 -27.74572728 27.34870137 -25.875 24.625 C-25.400625 23.90828125 -24.92625 23.1915625 -24.4375 22.453125 C-22.98682022 20.28102609 -21.4975671 18.13997275 -20 16 C-19.50951172 15.266604 -19.01902344 14.53320801 -18.51367188 13.77758789 C-15.39987961 9.30431719 -13.0738037 6.97324822 -7.75 5.1875 C-3.07015986 3.70760541 -3.07015986 3.70760541 0 0 Z M-10 12 C-9.58721863 18.50130656 -8.54397816 24.71636642 -7.125 31.0625 C-6.96354492 31.8248999 -6.80208984 32.5872998 -6.63574219 33.37280273 C-6.11016237 35.77522361 -6.11016237 35.77522361 -5 39 C-1.49904689 40.16698437 1.3122232 40.13268287 5 40.125 C6.2375 40.12757812 7.475 40.13015625 8.75 40.1328125 C12.01230773 40.14991302 12.01230773 40.14991302 15 39 C15.88520157 36.99449766 15.88520157 36.99449766 16.38671875 34.51953125 C16.60263672 33.60236328 16.81855469 32.68519531 17.04101562 31.74023438 C17.25435547 30.77408203 17.46769531 29.80792969 17.6875 28.8125 C17.91244141 27.86568359 18.13738281 26.91886719 18.36914062 25.94335938 C19.45321672 21.22153251 20.30335325 16.87824814 20 12 C19.01 11.67 18.02 11.34 17 11 C16.85304688 11.66386719 16.70609375 12.32773438 16.5546875 13.01171875 C14.49667778 21.11365358 14.49667778 21.11365358 10.875 23.8125 C7.78818179 25.7223404 7.78818179 25.7223404 7.125 28.8125 C7.08375 29.534375 7.0425 30.25625 7 31 C5.68 31 4.36 31 3 31 C2.773125 30.0925 2.54625 29.185 2.3125 28.25 C1.28726283 24.87697026 1.28726283 24.87697026 -1.4375 23.25 C-5.24464938 19.90713713 -5.86913048 15.81768805 -7 11 C-8.2236068 10.9254644 -8.2236068 10.9254644 -10 12 Z M-16 20 C-17.22438548 21.41775618 -17.22438548 21.41775618 -18.3828125 23.28125 C-18.82753906 23.95800781 -19.27226562 24.63476562 -19.73046875 25.33203125 C-20.19066406 26.04746094 -20.65085937 26.76289063 -21.125 27.5 C-21.59292969 28.21542969 -22.06085937 28.93085938 -22.54296875 29.66796875 C-23.70152501 31.44126915 -24.85156066 33.2201309 -26 35 C-25.34 36.32 -24.68 37.64 -24 39 C-23.75507813 38.29101562 -23.51015625 37.58203125 -23.2578125 36.8515625 C-21.37825824 32.59046123 -18.50820413 29.19748935 -15.6796875 25.5234375 C-13.72294735 23.08900182 -13.72294735 23.08900182 -14 20 C-14.66 20 -15.32 20 -16 20 Z M24 20 C24.60325399 23.93507219 26.56068027 26.37102213 28.9375 29.5 C31.26942014 32.58101246 33.40968534 35.46966798 35 39 C35.82431351 36.66942629 36.20687435 35.49022359 35.22729492 33.16894531 C34.61011597 32.25773926 34.61011597 32.25773926 33.98046875 31.328125 C33.53509766 30.66425781 33.08972656 30.00039063 32.63085938 29.31640625 C32.15455078 28.63449219 31.67824219 27.95257812 31.1875 27.25 C30.49043945 26.20392578 30.49043945 26.20392578 29.77929688 25.13671875 C28.58157554 23.38051904 27.29679562 21.68436782 26 20 C25.34 20 24.68 20 24 20 Z M-13 29 C-14.2973011 30.43444451 -14.2973011 30.43444451 -15.625 32.25 C-16.09164063 32.85328125 -16.55828125 33.4565625 -17.0390625 34.078125 C-18.19699802 35.94980252 -18.19699802 35.94980252 -17.74609375 38.03125 C-16.69863011 40.79523781 -15.36813157 43.38270483 -14 46 C-11.83341465 44.50520579 -11.83341465 44.50520579 -10 42 C-9.52570463 37.01989858 -9.73118016 33.53763968 -12 29 C-12.33 29 -12.66 29 -13 29 Z M22 29 C19.73118016 33.53763968 19.52570463 37.01989858 20 42 C21.83341465 44.50520579 21.83341465 44.50520579 24 46 C26.93992784 41.77255141 26.93992784 41.77255141 28 36.9375 C26.54600026 34.12037549 24.86333464 31.56208513 23 29 C22.67 29 22.34 29 22 29 Z M-22 42 C-21 44 -21 44 -21 44 Z M31 42 C32 44 32 44 32 44 Z M-6 44 C-14.48417917 58.43020433 -16.40538264 72.51443949 -16 89 C-3.82477716 92.29815804 13.88318096 92.59242374 26 89 C26.55539098 74.68325477 26.32792261 55.18678454 16 44 C13.59091277 43.45016401 13.59091277 43.45016401 10.89453125 43.609375 C9.91162109 43.62226562 8.92871094 43.63515625 7.91601562 43.6484375 C6.89185547 43.68195312 5.86769531 43.71546875 4.8125 43.75 C3.77673828 43.76804688 2.74097656 43.78609375 1.67382812 43.8046875 C-0.88504284 43.85185563 -3.44205842 43.91765943 -6 44 Z M-17 51 C-16 54 -16 54 -16 54 Z M26 51 C27 54 27 54 27 54 Z M-18 54 C-17 57 -17 57 -17 57 Z M27 54 C28 57 28 57 28 57 Z " fill="#ff5b00" transform="translate(45,1)"/>
</svg>
