<?xml version="1.0" encoding="UTF-8"?>
<svg version="1.1" xmlns="http://www.w3.org/2000/svg" width="100" height="100">
<path d="M0 0 C2.9375 2.5 2.9375 2.5 5 5 C4.01 6.65 3.02 8.3 2 10 C2.9075 10.556875 3.815 11.11375 4.75 11.6875 C8.42403253 14.30171545 10.97923839 16.95847678 13 21 C13.5072965 26.55531248 13.76260422 31.41830236 11.3125 36.5 C4.57758468 43.78098954 4.57758468 43.78098954 -0.390625 44.203125 C-10.28846154 44.36538462 -10.28846154 44.36538462 -15 41 C-19.23413489 36.77740226 -21.13945558 33.18453491 -21.25 27.1875 C-21.18478303 22.70057216 -20.62436044 19.7615833 -18 16 C-16.08659816 14.16823664 -14.11161681 12.61740862 -12 11 C-11.34 10.34 -10.68 9.68 -10 9 C-10.66 8.01 -11.32 7.02 -12 6 C-12 5.01 -12 4.02 -12 3 C-8.13007373 -0.16630331 -4.90447608 -0.70063944 0 0 Z M-5 2 C-5.33 2.66 -5.66 3.32 -6 4 C-4.68 4 -3.36 4 -2 4 C-2 3.34 -2 2.68 -2 2 C-2.99 2 -3.98 2 -5 2 Z M-5 6 C-5 7.32 -5 8.64 -5 10 C-4.34 10 -3.68 10 -3 10 C-2.67 8.68 -2.34 7.36 -2 6 C-2.99 6 -3.98 6 -5 6 Z M-15 17 C-18.05519632 21.4809546 -18.94271367 25.70385577 -18 31 C-15.60178971 35.79642058 -12.79642058 38.60178971 -8 41 C-1.60896864 41.81155954 1.80200607 40.77109363 7 37 C10.43626263 33.23119582 10.51209617 29.34107394 10.3515625 24.4375 C9.67904883 19.77473854 7.30117669 17.14809708 3.875 14.125 C-2.92028404 11.46597581 -9.54182084 11.9411998 -15 17 Z " fill="#ff5b00" transform="translate(35,15)"/>
<path d="M0 0 C2.5 0.25 2.5 0.25 4.5 2.25 C4.6953125 4.6328125 4.6953125 4.6328125 4.625 7.375 C4.60695313 8.28507812 4.58890625 9.19515625 4.5703125 10.1328125 C4.54710938 10.83148438 4.52390625 11.53015625 4.5 12.25 C5.16 12.25 5.82 12.25 6.5 12.25 C6.62375 13.136875 6.7475 14.02375 6.875 14.9375 C7.69151915 19.26505151 9.15524122 22.62958442 11.29296875 26.4765625 C12.5 30.25 12.5 30.25 11.18359375 33.77734375 C10.46207711 34.93150657 9.71226945 36.06838857 8.9375 37.1875 C8.57591797 37.77595703 8.21433594 38.36441406 7.84179688 38.97070312 C6.74609375 40.65234375 6.74609375 40.65234375 4.5 43.25 C3.18 43.25 1.86 43.25 0.5 43.25 C-1.45703125 40.80078125 -1.45703125 40.80078125 -3.3125 37.5625 C-3.93769531 36.50675781 -4.56289062 35.45101562 -5.20703125 34.36328125 C-6.62303953 30.95373865 -6.69312209 29.67730168 -5.5 26.25 C-4.984375 25.280625 -4.46875 24.31125 -3.9375 23.3125 C-2.27426808 20.33294157 -2.27426808 20.33294157 -2.5 17.0625 C-2.5 16.134375 -2.5 15.20625 -2.5 14.25 C-2.025625 13.79625 -1.55125 13.3425 -1.0625 12.875 C1.53938936 10.16903506 1.20024432 6.90701926 1.5 3.25 C0.51 3.25 -0.48 3.25 -1.5 3.25 C-1.5 5.23 -1.5 7.21 -1.5 9.25 C-3.15 9.58 -4.8 9.91 -6.5 10.25 C-6.5 9.26 -6.5 8.27 -6.5 7.25 C-5.84 7.25 -5.18 7.25 -4.5 7.25 C-4.54125 6.46625 -4.5825 5.6825 -4.625 4.875 C-4.45379857 1.27977007 -3.58504467 0.35850447 0 0 Z M1.5 14.25 C1.5 15.57 1.5 16.89 1.5 18.25 C2.49 17.92 3.48 17.59 4.5 17.25 C4.17 16.26 3.84 15.27 3.5 14.25 C2.84 14.25 2.18 14.25 1.5 14.25 Z M2.5 21.25 C2.17 23.56 1.84 25.87 1.5 28.25 C2.49 28.25 3.48 28.25 4.5 28.25 C4.17 25.94 3.84 23.63 3.5 21.25 C3.17 21.25 2.84 21.25 2.5 21.25 Z M-1.5 25.25 C-0.5 27.25 -0.5 27.25 -0.5 27.25 Z M6.5 26.25 C7.5 28.25 7.5 28.25 7.5 28.25 Z M0.5 30.25 C1.16 32.56 1.82 34.87 2.5 37.25 C3.9606285 34.60261084 4.5 33.35551666 4.5 30.25 C3.18 30.25 1.86 30.25 0.5 30.25 Z M6.5 30.25 C7.5 32.25 7.5 32.25 7.5 32.25 Z " fill="#ff5b00" transform="translate(74.5,42.75)"/>
<path d="M0 0 C2.5625 0.1875 2.5625 0.1875 4.5625 2.1875 C4.7578125 4.5703125 4.7578125 4.5703125 4.6875 7.3125 C4.66945313 8.22257812 4.65140625 9.13265625 4.6328125 10.0703125 C4.60960937 10.76898438 4.58640625 11.46765625 4.5625 12.1875 C5.2225 12.1875 5.8825 12.1875 6.5625 12.1875 C6.68625 13.074375 6.81 13.96125 6.9375 14.875 C7.72505939 19.04906475 8.82966233 22.16676181 11.3125 25.625 C12.5625 28.1875 12.5625 28.1875 12.1875 30.875 C9.84462844 35.65085356 6.98309942 40.10536956 3.5625 44.1875 C2.9025 44.1875 2.2425 44.1875 1.5625 44.1875 C0.05135488 42.1517759 -1.29616493 40.14979077 -2.625 38 C-3.00591797 37.42185547 -3.38683594 36.84371094 -3.77929688 36.24804688 C-5.49778012 33.48786961 -6.46793349 31.70197086 -6.2734375 28.4140625 C-5.4375 26.1875 -5.4375 26.1875 -3.875 23.75 C-2.18777815 21.23203779 -2.18777815 21.23203779 -2.4375 18.125 C-2.4375 15.1875 -2.4375 15.1875 -1 13.3125 C1.35444779 10.110451 1.23522147 7.1148423 1.5625 3.1875 C0.5725 3.1875 -0.4175 3.1875 -1.4375 3.1875 C-1.4375 5.1675 -1.4375 7.1475 -1.4375 9.1875 C-3.0875 9.5175 -4.7375 9.8475 -6.4375 10.1875 C-5.96199439 8.70715236 -5.48198784 7.22824979 -5 5.75 C-4.73316406 4.92628906 -4.46632812 4.10257813 -4.19140625 3.25390625 C-3.0910009 0.2377693 -3.0910009 0.2377693 0 0 Z M1.5625 14.1875 C1.5625 15.5075 1.5625 16.8275 1.5625 18.1875 C2.5525 17.8575 3.5425 17.5275 4.5625 17.1875 C4.2325 16.1975 3.9025 15.2075 3.5625 14.1875 C2.9025 14.1875 2.2425 14.1875 1.5625 14.1875 Z M2.5625 21.1875 C2.2325 23.4975 1.9025 25.8075 1.5625 28.1875 C2.5525 28.1875 3.5425 28.1875 4.5625 28.1875 C4.2325 25.8775 3.9025 23.5675 3.5625 21.1875 C3.2325 21.1875 2.9025 21.1875 2.5625 21.1875 Z M-1.4375 25.1875 C-0.4375 27.1875 -0.4375 27.1875 -0.4375 27.1875 Z M6.5625 26.1875 C7.5625 28.1875 7.5625 28.1875 7.5625 28.1875 Z M1.5625 30.1875 C1.8925 32.4975 2.2225 34.8075 2.5625 37.1875 C4.0231285 34.54011084 4.5625 33.29301666 4.5625 30.1875 C3.5725 30.1875 2.5825 30.1875 1.5625 30.1875 Z M6.5625 30.1875 C6.8925 30.8475 7.2225 31.5075 7.5625 32.1875 C7.8925 31.5275 8.2225 30.8675 8.5625 30.1875 C7.9025 30.1875 7.2425 30.1875 6.5625 30.1875 Z M-1.4375 31.1875 C-0.4375 33.1875 -0.4375 33.1875 -0.4375 33.1875 Z " fill="#ff5b00" transform="translate(54.4375,42.8125)"/>
<path d="M0 0 C3.61491057 2.82906044 5.92910812 5.50225409 7 10 C6.88898873 16.10561978 5.10811056 18.79169162 1 23 C-2.72466849 24.86233425 -6.94495313 24.57130829 -11 24 C-14.12578143 22.3279253 -16.39281175 20.2143765 -18 17 C-18.51037087 12.94619711 -18.89274541 8.8225342 -17.05859375 5.078125 C-12.42522082 -0.78984573 -6.9599664 -2.18379512 0 0 Z M-14 6 C-15.61588379 9.23176757 -15.57451407 12.50615283 -15 16 C-13.01078114 18.9838283 -11.61497432 20.60276841 -8.0625 21.4765625 C-4.07588643 21.76347787 -2.36629686 21.26498071 0.9375 18.875 C3.26122067 15.63587421 4.08133993 13.98565637 4 10 C2.35035017 6.82289663 0.96314357 4.6621612 -2 2.625 C-7.27100915 0.97780964 -9.88484227 2.89076972 -14 6 Z " fill="#ff5b00" transform="translate(37,30)"/>
</svg>
