<?xml version="1.0" encoding="UTF-8"?>
<svg version="1.1" xmlns="http://www.w3.org/2000/svg" width="100" height="100">
<path d="M0 0 C2.39196459 2.39196459 2.67171828 3.88206268 3.51220703 7.13647461 C3.7923465 8.20776108 4.07248596 9.27904755 4.3611145 10.38279724 C4.65702484 11.54424759 4.95293518 12.70569794 5.2578125 13.90234375 C5.7196846 15.68530602 5.7196846 15.68530602 6.19088745 17.50428772 C7.00811215 20.66651023 7.81889724 23.83029948 8.62719727 26.99481201 C9.45139747 30.21127455 10.28729834 33.42468383 11.12109375 36.63867188 C11.75066668 39.08055738 12.37959462 41.52260928 13.0078125 43.96484375 C13.3077713 45.12426987 13.6077301 46.28369598 13.91677856 47.47825623 C14.19061371 48.55269485 14.46444885 49.62713348 14.74658203 50.73413086 C14.98925812 51.68074081 15.2319342 52.62735077 15.48196411 53.60264587 C16 56 16 56 16 59 C13.39741676 59.83857688 10.79314353 60.67103344 8.1875 61.5 C7.08051758 61.85771484 7.08051758 61.85771484 5.95117188 62.22265625 C2.86744804 63.19940136 0.25504191 64 -3 64 C-3.99 61.03 -4.98 58.06 -6 55 C-6.33 62.26 -6.66 69.52 -7 77 C-24.16 77 -41.32 77 -59 77 C-59.33 69.74 -59.66 62.48 -60 55 C-60.99 57.97 -61.98 60.94 -63 64 C-69.56770158 62.79746309 -75.71571568 61.24039423 -82 59 C-80.0210933 48.68740614 -77.53783885 38.51620806 -74.99682617 28.32983398 C-74.4546574 26.14104223 -73.92054759 23.95023938 -73.39428711 21.75756836 C-72.62948346 18.57424818 -71.83912585 15.39825979 -71.04296875 12.22265625 C-70.81256393 11.24144302 -70.58215912 10.2602298 -70.34477234 9.24928284 C-68.61101467 2.50137309 -68.61101467 2.50137309 -65.515625 -0.03857422 C-64.68546875 -0.35584473 -63.8553125 -0.67311523 -63 -1 C-61.91332031 -1.52980469 -60.82664062 -2.05960938 -59.70703125 -2.60546875 C-40.77172426 -10.65414948 -18.23627964 -9.60911658 0 0 Z M-39 -3 C-37.70024676 3.71539173 -35.70071112 9.72019113 -33 16 C-31.00224127 13.00336191 -30.01002585 10.46337374 -28.875 7.0625 C-28.34519531 5.50208984 -28.34519531 5.50208984 -27.8046875 3.91015625 C-26.8223271 0.86067168 -26.8223271 0.86067168 -27 -3 C-30.96 -3 -34.92 -3 -39 -3 Z M-47 -1 C-46.649375 0.0725 -46.29875 1.145 -45.9375 2.25 C-45 6 -45 6 -45.6875 7.8125 C-46.19988974 11.39922817 -43.97240348 13.87725261 -42.0625 16.75 C-41.67642578 17.35199219 -41.29035156 17.95398438 -40.89257812 18.57421875 C-39.93954585 20.05671339 -38.97121988 21.52935633 -38 23 C-36.82208068 19.46624203 -37.24584928 18.55148893 -38.43359375 15.11328125 C-38.75263672 14.17548828 -39.07167969 13.23769531 -39.40039062 12.27148438 C-39.74263672 11.29501953 -40.08488281 10.31855469 -40.4375 9.3125 C-40.94506836 7.83040039 -40.94506836 7.83040039 -41.46289062 6.31835938 C-42.30059974 3.87602435 -43.14657083 1.43687729 -44 -1 C-44.99 -1 -45.98 -1 -47 -1 Z M-22 -1 C-23.03282411 2.12116686 -24.04919118 5.24744818 -25.0625 8.375 C-25.50432617 9.70917969 -25.50432617 9.70917969 -25.95507812 11.0703125 C-26.22900391 11.92109375 -26.50292969 12.771875 -26.78515625 13.6484375 C-27.17006226 14.82672119 -27.17006226 14.82672119 -27.56274414 16.02880859 C-28.2312021 18.06284364 -28.2312021 18.06284364 -27 20 C-25.79134397 18.47486297 -24.60876047 16.92904031 -23.4375 15.375 C-22.77621094 14.51648437 -22.11492188 13.65796875 -21.43359375 12.7734375 C-19.65077929 9.3243959 -20.14513903 7.70439754 -21 4 C-20.0625 1.125 -20.0625 1.125 -19 -1 C-19.99 -1 -20.98 -1 -22 -1 Z M-63 5 C-64.24674814 7.58789757 -64.86110542 9.43844502 -65.4375 12.1875 C-65.62014404 12.93692871 -65.80278809 13.68635742 -65.9909668 14.45849609 C-66.41996642 16.22492476 -66.83625193 17.99446619 -67.24316406 19.76611328 C-68.14634658 23.62532479 -69.11260721 27.46658222 -70.0859375 31.30859375 C-72.0820696 39.19968992 -74.04810487 47.09784386 -76 55 C-73.03 55.99 -70.06 56.98 -67 58 C-64.05943932 50.65323641 -61.95182951 43.11239233 -59.8125 35.5 C-58.554375 31.045 -57.29625 26.59 -56 22 C-55.67 38.83 -55.34 55.66 -55 73 C-49.06 73 -43.12 73 -37 73 C-34.86722621 40.37738855 -34.86722621 40.37738855 -49.82836914 12.15185547 C-51.35337093 9.35098741 -50.70251608 8.02740043 -50 5 C-50.66 4.01 -51.32 3.02 -52 2 C-56.61395202 2 -59.00394541 2.71064151 -63 5 Z M-14 2 C-15.14209817 3.78228936 -15.14209817 3.78228936 -16 6 C-15.78561279 6.58773193 -15.57122559 7.17546387 -15.3503418 7.78100586 C-14.80710567 11.22175369 -16.45296413 12.89819017 -18.33203125 15.75390625 C-19.04810547 16.85541016 -19.76417969 17.95691406 -20.50195312 19.09179688 C-21.27186689 20.24887663 -22.04205209 21.40577583 -22.8125 22.5625 C-23.57211239 23.72255583 -24.33058953 24.88335588 -25.08789062 26.04492188 C-27.70464191 30.04384259 -30.34910934 34.02366401 -33 38 C-33.17162025 40.68594915 -33.23224552 43.26544901 -33.1953125 45.94921875 C-33.1924826 46.72183548 -33.18965271 47.49445221 -33.18673706 48.29048157 C-33.17554878 50.75631243 -33.15044703 53.22177906 -33.125 55.6875 C-33.11496843 57.36002079 -33.10584289 59.03254728 -33.09765625 60.70507812 C-33.077316 64.80363838 -33.03816585 68.90141185 -33 73 C-25.74 73 -18.48 73 -11 73 C-10.67 56.17 -10.34 39.34 -10 22 C-5.125 39.4375 -5.125 39.4375 -3.59814453 44.94702148 C-3.19366329 46.38022336 -2.78859324 47.81325926 -2.3828125 49.24609375 C-2.17712646 49.99669067 -1.97144043 50.7472876 -1.75952148 51.52062988 C-1.23301697 53.36527829 -0.62436826 55.18613699 0 57 C1.94350596 58.2537118 1.94350596 58.2537118 3.9453125 57.44140625 C4.66460937 57.15136719 5.38390625 56.86132812 6.125 56.5625 C6.84945312 56.27503906 7.57390625 55.98757812 8.3203125 55.69140625 C8.87460938 55.46324219 9.42890625 55.23507813 10 55 C8.33589602 48.21694124 6.66262058 41.43619326 4.98291016 34.65698242 C4.41242774 32.34988917 3.844057 30.0422727 3.27783203 27.73413086 C2.46419298 24.41901483 1.64301029 21.10584669 0.8203125 17.79296875 C0.56814972 16.7585112 0.31598694 15.72405365 0.05618286 14.6582489 C-0.1839151 13.6974794 -0.42401306 12.7367099 -0.67138672 11.74682617 C-0.88012421 10.90077316 -1.08886169 10.05472015 -1.30392456 9.18302917 C-1.97072161 6.74522338 -1.97072161 6.74522338 -4 4 C-7.62395506 2.503149 -10.03996756 2 -14 2 Z M-37 23 C-36 25 -36 25 -36 25 Z " fill="#ff5b00" transform="translate(83,15)"/>
<path d="M0 0 C1.32 0 2.64 0 4 0 C4 1.32 4 2.64 4 4 C2.68 4 1.36 4 0 4 C0 2.68 0 1.36 0 0 Z " fill="#ff5b00" transform="translate(52,78)"/>
<path d="M0 0 C1.32 0 2.64 0 4 0 C4 1.32 4 2.64 4 4 C2.68 4 1.36 4 0 4 C0 2.68 0 1.36 0 0 Z " fill="#ff5b00" transform="translate(52,68)"/>
<path d="M0 0 C1.32 0 2.64 0 4 0 C4 1.32 4 2.64 4 4 C2.68 4 1.36 4 0 4 C0 2.68 0 1.36 0 0 Z " fill="#ff5b00" transform="translate(52,58)"/>
</svg>
